# xmcd CD database file
#
# Track frame offsets:
#	150
#	16590
#	35751
#	56106
#	76348
#	92565
#	109438
#	124944
#	145133
#	162687
#	198927
#
# Disc length: 2848 seconds
#
# Revision: 1
# Processed by: cddbd v1.5.1PL2 Copyright (c) Steve Scherf et al.
# Submitted via: CDex 1.51
#
DISCID=960b1e0b
DTITLE=The Weathermen - Embedded With The Weathermen
DYEAR=2006
DGENRE=Jazz
TTITLE0=I'mTight
TTITLE1=Transit
TTITLE2=Ice Cream Truck
TTITLE3=Shadow Diary
TTITLE4=I, Lizard
TTITLE5=Years of The Snake
TTITLE6=Scan Me
TTITLE7=Fruits and Vegetables
TTITLE8=Dear God
TTITLE9=Who Killed Who
TTITLE10=[data track]
EXTD=YEAR: 2006
EXTT0=
EXTT1=
EXTT2=
EXTT3=
EXTT4=
EXTT5=
EXTT6=
EXTT7=
EXTT8=
EXTT9=
EXTT10=
PLAYORDER=
